<svg id="Layer_1" data-name="Layer 1" xmlns="http://www.w3.org/2000/svg" viewBox="0 0 156 55"><defs><style>.cls-1{fill:none;stroke:#333;stroke-miterlimit:10;stroke-width:1.2px;}.cls-2{fill:#333;}</style></defs><path class="cls-1" d="M150.89,54s-1-12-7-22-12.82-12.46-12.82-12.46"/><polyline class="cls-1" points="146.4 50.5 150.9 53.86 154.4 49.5"/><path class="cls-2" d="M3.79,13.32c.49,0,.73.2.73.6s-.23.53-.68.68a1.56,1.56,0,0,0-1.18,1.52,1.6,1.6,0,0,0,.69,1.37,2.57,2.57,0,0,0,1.49.41,5,5,0,0,0,3.16-1,2.1,2.1,0,0,0,.84-1.7A2.57,2.57,0,0,0,8.6,14a12.92,12.92,0,0,0-.8-1.32c-.54-.82-1-1.56-1.38-2.24a4.48,4.48,0,0,1-.63-2.2A6.44,6.44,0,0,1,8.32,3.47a12.07,12.07,0,0,1,3-1.88A6.42,6.42,0,0,1,13.86,1a2.23,2.23,0,0,1,1.37.42,1.64,1.64,0,0,1,.68,1.38,4.55,4.55,0,0,1-1.47,3,11.72,11.72,0,0,1-3.26,2.43,3.6,3.6,0,0,1-1.41.47.77.77,0,0,1-.56-.26A.57.57,0,0,1,9.05,8c0-.34.3-.61.9-.82a9.46,9.46,0,0,0,2.93-1.65c1.09-.92,1.64-1.71,1.64-2.4a.76.76,0,0,0-.33-.64,1,1,0,0,0-.62-.19A5.56,5.56,0,0,0,11.21,3a8.06,8.06,0,0,0-3,2.51,4.4,4.4,0,0,0-1,2.58A4.07,4.07,0,0,0,7.75,10c.28.52.64,1.1,1.08,1.76S9.6,13,9.9,13.51a4,4,0,0,1,.5,1.79,3.49,3.49,0,0,1-1.84,2.86A6.35,6.35,0,0,1,5,19.2a4.2,4.2,0,0,1-3.06-1.08,2.57,2.57,0,0,1-.83-1.89,2.75,2.75,0,0,1,.79-2A3.14,3.14,0,0,1,3,13.5,2.11,2.11,0,0,1,3.79,13.32Z"/><path class="cls-2" d="M13,16v.25a.91.91,0,0,0,.15.52,1.27,1.27,0,0,0,1.12.5q1.71,0,3.95-2.62c.27-.3.49-.45.67-.45a.38.38,0,0,1,.28.15.37.37,0,0,1,.08.2c0,.36-.44,1-1.31,1.81A10.32,10.32,0,0,1,15.75,18a4.61,4.61,0,0,1-2.16.63A2,2,0,0,1,12,17.87a2.1,2.1,0,0,1-.39-1.34A6.48,6.48,0,0,1,13.75,12c1.18-1.21,2.2-1.81,3.08-1.81a1,1,0,0,1,.64.22.91.91,0,0,1,.36.75A3.57,3.57,0,0,1,17.16,13,7.1,7.1,0,0,1,13,16Zm.3-1.07a5.24,5.24,0,0,0,1.5-.73,6.11,6.11,0,0,0,1.52-1.67,1.14,1.14,0,0,0,.21-.59.24.24,0,0,0-.26-.27,1.84,1.84,0,0,0-1,.53A7,7,0,0,0,13.3,14.9Z"/><path class="cls-2" d="M22.15,13.91l.34-.33q2.85-2.79,3.83-2.79c.35,0,.53.2.53.59a1.64,1.64,0,0,1-.48,1q-2.61,3-2.61,5.37a2.81,2.81,0,0,0,.41,1.44,1,1,0,0,1,.19.49.41.41,0,0,1-.16.31.56.56,0,0,1-.43.19,1.09,1.09,0,0,1-.94-.71,3.26,3.26,0,0,1-.37-1.62,7.91,7.91,0,0,1,1.4-4.09,10.79,10.79,0,0,0-3.46,4.21c-.28.48-.57.72-.88.72a.49.49,0,0,1-.38-.16A.66.66,0,0,1,19,18a13.54,13.54,0,0,1,1.68-3.87,27.92,27.92,0,0,1,1.42-2.46c.35-.5.64-.75.89-.75a.47.47,0,0,1,.34.16.59.59,0,0,1,.19.44,1.78,1.78,0,0,1-.39.86A11.79,11.79,0,0,0,22.15,13.91Z"/><path class="cls-2" d="M31.83,9.79a21.32,21.32,0,0,0-1.64,3.09,10,10,0,0,0-1.08,3.64.79.79,0,0,0,.14.52.51.51,0,0,0,.43.17c.45,0,1-.42,1.65-1.28a16.84,16.84,0,0,0,1.1-1.59c.17-.3.36-.45.56-.45a.38.38,0,0,1,.3.13.37.37,0,0,1,.11.24,6,6,0,0,1-1.33,2.26c-1.06,1.4-2,2.1-2.9,2.1A1.39,1.39,0,0,1,28,18a2,2,0,0,1-.29-1.16,9.93,9.93,0,0,1,1-3.86c.16-.36.58-1.24,1.29-2.64a2.27,2.27,0,0,1-.56.1,1,1,0,0,1-.51-.14.54.54,0,0,1-.3-.48.6.6,0,0,1,.4-.54,5.58,5.58,0,0,1,1-.18A7.21,7.21,0,0,0,31,8.82a25.81,25.81,0,0,1,1.56-2.34,12,12,0,0,1,.84-1.06.91.91,0,0,1,.57-.35.51.51,0,0,1,.36.2.49.49,0,0,1,.16.35A3.42,3.42,0,0,1,33.69,7a13.41,13.41,0,0,0-.76,1.11,9.37,9.37,0,0,1,2.18-.41q.75,0,.75.63a.5.5,0,0,1-.26.46,2.13,2.13,0,0,1-.71.14,12.79,12.79,0,0,0-2.07.52Z"/><path class="cls-2" d="M36.15,14.1a26.69,26.69,0,0,1,3.09-2.81,13.1,13.1,0,0,1,1.34-.91,1.27,1.27,0,0,1,.45-.21c.13,0,.27.1.41.3a.53.53,0,0,1,.12.31c0,.16-.17.38-.52.67-.93.73-1.39,1.29-1.39,1.66,0,.21.11.32.35.32a4.8,4.8,0,0,0,2-1,.79.79,0,0,1,.41-.17.31.31,0,0,1,.21.11.35.35,0,0,1,.13.26c0,.28-.39.69-1.15,1.26a3.86,3.86,0,0,1-2.28.9,1.44,1.44,0,0,1-.81-.23.74.74,0,0,1-.32-.68,1.48,1.48,0,0,1,.29-.78A13.29,13.29,0,0,0,36,15.75a18.39,18.39,0,0,0-1.68,2.83q-.32.63-.78.63T33,18.73a11.23,11.23,0,0,1,.79-2.49,19.05,19.05,0,0,1,2.47-4.66c.52-.68,1-1,1.32-1a.51.51,0,0,1,.33.11.41.41,0,0,1,.18.34,1.08,1.08,0,0,1-.28.57c0,.05-.27.35-.72.92A7.25,7.25,0,0,0,36.15,14.1Z"/><path class="cls-2" d="M46.24,16.34a10,10,0,0,1-.89,1.34,2.36,2.36,0,0,1-1.71,1.07,1.29,1.29,0,0,1-1.15-.7A2.15,2.15,0,0,1,42.23,17a7.32,7.32,0,0,1,1-3.35,8.75,8.75,0,0,1,2.57-3.13,3.28,3.28,0,0,1,1.9-.71,1.36,1.36,0,0,1,1,.36,1,1,0,0,1,.32.71,2.13,2.13,0,0,1-.23.83.9.9,0,0,1,.21.51,2.28,2.28,0,0,1-.39.94,10.66,10.66,0,0,0-.79,1.78,5.93,5.93,0,0,0-.42,1.88,1.33,1.33,0,0,0,.34.95,2.44,2.44,0,0,0,.56.31.58.58,0,0,1,.34.58.52.52,0,0,1-.19.42.72.72,0,0,1-.48.18,1.58,1.58,0,0,1-1.27-.66,2,2,0,0,1-.44-1.34Q46.18,17,46.24,16.34ZM48,11.84a1.27,1.27,0,0,0-.36-.44.65.65,0,0,0-.41-.15c-.69,0-1.44.61-2.26,1.82a6.59,6.59,0,0,0-1.34,3.41,1,1,0,0,0,.13.52.48.48,0,0,0,.39.17c.44,0,.95-.46,1.53-1.39a21.37,21.37,0,0,0,1.22-2.26,11.73,11.73,0,0,1,.7-1.28A1.84,1.84,0,0,1,48,11.84Z"/><path class="cls-2" d="M51.71,14.06c-.28.71-.48,1.28-.62,1.72a3.6,3.6,0,0,0-.21.92.3.3,0,0,0,.33.34c.33,0,.75-.31,1.27-.93a17.78,17.78,0,0,0,1.1-1.63c.19-.31.39-.46.6-.46s.36.11.36.34a6,6,0,0,1-1.36,2.38c-.94,1.25-1.81,1.87-2.61,1.87a1,1,0,0,1-.85-.44,1.27,1.27,0,0,1-.23-.76A7.07,7.07,0,0,1,50,15.29,31.17,31.17,0,0,1,51.34,12a45.58,45.58,0,0,1,4.79-8.13c1.31-1.72,2.39-2.57,3.24-2.57A.81.81,0,0,1,60,1.6a1,1,0,0,1,.28.73c0,1.27-1.14,3.4-3.42,6.37a33,33,0,0,1-3.66,4Zm1-2.18a24.9,24.9,0,0,0,5.08-6.15,6.84,6.84,0,0,0,1.16-2.56c0-.2-.08-.3-.26-.3q-.75,0-2.73,3A42.52,42.52,0,0,0,52.68,11.88Z"/><path class="cls-2" d="M56.54,16v.25a.85.85,0,0,0,.16.52,1.26,1.26,0,0,0,1.12.5c1.14,0,2.45-.87,4-2.62.26-.3.48-.45.67-.45a.34.34,0,0,1,.27.15.3.3,0,0,1,.08.2c0,.36-.43,1-1.31,1.81A9.84,9.84,0,0,1,59.29,18a4.55,4.55,0,0,1-2.16.63,2,2,0,0,1-1.61-.71,2,2,0,0,1-.4-1.34A6.49,6.49,0,0,1,57.3,12c1.17-1.21,2.2-1.81,3.07-1.81a1,1,0,0,1,.65.22.93.93,0,0,1,.35.75A3.47,3.47,0,0,1,60.7,13,7.07,7.07,0,0,1,56.54,16Zm.31-1.07a5.37,5.37,0,0,0,1.5-.73,6.27,6.27,0,0,0,1.52-1.67,1.21,1.21,0,0,0,.2-.59c0-.18-.08-.27-.26-.27a1.9,1.9,0,0,0-1,.53A7.05,7.05,0,0,0,56.85,14.9Z"/><path class="cls-2" d="M74.1,11.34c.37-.24.65-.41.83-.5a2.54,2.54,0,0,1,1.1-.27,1.13,1.13,0,0,1,.9.35,1.56,1.56,0,0,1,.3,1,5.28,5.28,0,0,1-.67,2.3A9.8,9.8,0,0,1,74,17.6a3.75,3.75,0,0,1-2.33,1,1.9,1.9,0,0,1-1.19-.46,82.17,82.17,0,0,0-3.35,7.72c-.21.63-.46.95-.74.95s-.27-.1-.41-.28a.68.68,0,0,1-.15-.42,22.14,22.14,0,0,1,1.8-4.8A97.79,97.79,0,0,1,73,10.93c.35-.59.58-1,.7-1.21.32-.59.63-.89.93-.89s.47.19.47.56a1.77,1.77,0,0,1-.33.85C74.46,10.7,74.25,11.06,74.1,11.34ZM71,17a1,1,0,0,0,.76.31c.84,0,1.78-.75,2.81-2.25a8.9,8.9,0,0,0,.92-1.71,3.32,3.32,0,0,0,.27-1,.5.5,0,0,0-.12-.37.46.46,0,0,0-.36-.13,2.58,2.58,0,0,0-1.57.89A9.8,9.8,0,0,0,72,15.12C71.52,16.08,71.19,16.71,71,17Z"/><path class="cls-2" d="M78.61,16v.25a.91.91,0,0,0,.15.52,1.27,1.27,0,0,0,1.12.5q1.71,0,4-2.62c.27-.3.49-.45.67-.45a.36.36,0,0,1,.28.15.37.37,0,0,1,.08.2c0,.36-.44,1-1.31,1.81A10.32,10.32,0,0,1,81.36,18a4.61,4.61,0,0,1-2.16.63,2,2,0,0,1-1.61-.71,2,2,0,0,1-.4-1.34A6.48,6.48,0,0,1,79.36,12c1.18-1.21,2.2-1.81,3.08-1.81a1,1,0,0,1,.64.22.91.91,0,0,1,.36.75A3.57,3.57,0,0,1,82.77,13,7.1,7.1,0,0,1,78.61,16Zm.3-1.07a5.45,5.45,0,0,0,1.51-.73,6.23,6.23,0,0,0,1.51-1.67,1.14,1.14,0,0,0,.21-.59.24.24,0,0,0-.26-.27,1.84,1.84,0,0,0-1,.53A7,7,0,0,0,78.91,14.9Z"/><path class="cls-2" d="M87.72,14.1a26.69,26.69,0,0,1,3.09-2.81,13.1,13.1,0,0,1,1.34-.91,1.27,1.27,0,0,1,.45-.21c.13,0,.27.1.41.3a.53.53,0,0,1,.12.31c0,.16-.17.38-.52.67-.93.73-1.39,1.29-1.39,1.66,0,.21.11.32.35.32a4.8,4.8,0,0,0,2-1,.79.79,0,0,1,.41-.17.31.31,0,0,1,.21.11.35.35,0,0,1,.13.26c0,.28-.39.69-1.15,1.26a3.86,3.86,0,0,1-2.28.9,1.44,1.44,0,0,1-.81-.23.74.74,0,0,1-.32-.68,1.48,1.48,0,0,1,.29-.78,13.29,13.29,0,0,0-2.54,2.62,18.39,18.39,0,0,0-1.68,2.83q-.31.63-.78.63t-.51-.48a10.94,10.94,0,0,1,.8-2.49,18.73,18.73,0,0,1,2.46-4.66c.52-.68,1-1,1.32-1a.51.51,0,0,1,.33.11.41.41,0,0,1,.18.34,1.08,1.08,0,0,1-.28.57c0,.05-.27.35-.72.92A7.25,7.25,0,0,0,87.72,14.1Z"/><path class="cls-2" d="M100.06,9.52a2.18,2.18,0,0,1,1.27.3,1,1,0,0,1,.43.91,2.47,2.47,0,0,1-.6,1.56,4,4,0,0,1-1.73,1.15,3,3,0,0,1-1.05.23c-.38,0-.57-.17-.57-.5a.57.57,0,0,1,.32-.52,7.9,7.9,0,0,1,.93-.23,2.18,2.18,0,0,0,.93-.48.89.89,0,0,0,.37-.69.51.51,0,0,0-.16-.42.75.75,0,0,0-.49-.14,3.19,3.19,0,0,0-1.75.65,2.05,2.05,0,0,0-1.11,1.72,3.48,3.48,0,0,0,.72,1.78,3.68,3.68,0,0,1,.81,2,2.11,2.11,0,0,1-1.07,1.89,2.68,2.68,0,0,1-1.49.43,2.3,2.3,0,0,1-2-.95,2.62,2.62,0,0,1-.48-1.58,2.9,2.9,0,0,1,.55-1.8,1,1,0,0,1,.73-.47c.23,0,.35.09.35.27a.74.74,0,0,1-.13.33,2.87,2.87,0,0,0-.31,1.38A1.5,1.5,0,0,0,95,17.43a1.32,1.32,0,0,0,1,.41,1,1,0,0,0,.83-.35,1.15,1.15,0,0,0,.25-.77,2.83,2.83,0,0,0-.66-1.49,4.06,4.06,0,0,1-.9-2.28A3,3,0,0,1,97,10.53,5.24,5.24,0,0,1,100.06,9.52Z"/><path class="cls-2" d="M106.19,9.78c.74,0,1.12.45,1.12,1.36a9.58,9.58,0,0,1-1.68,4.61c-1.22,2-2.4,3-3.54,3a1.23,1.23,0,0,1-1.17-.73,2,2,0,0,1-.19-.89,7.51,7.51,0,0,1,1.21-3.8,9.09,9.09,0,0,1,2.63-3A2.93,2.93,0,0,1,106.19,9.78ZM104.77,15c-.23-.19-.35-.33-.35-.43a2,2,0,0,1,.44-.6,3.88,3.88,0,0,0,1.23-2.23.4.4,0,0,0-.07-.22.36.36,0,0,0-.34-.2c-.29,0-.72.28-1.28.85a8.46,8.46,0,0,0-1.67,2.25,5.11,5.11,0,0,0-.67,2.2.71.71,0,0,0,.12.41.53.53,0,0,0,.45.25q.66,0,1.41-1a3.8,3.8,0,0,0,.53-.84C104.71,15.1,104.77,15,104.77,15Z"/><path class="cls-2" d="M109.93,13.91l.35-.33c1.9-1.86,3.18-2.79,3.82-2.79.36,0,.54.2.54.59a1.64,1.64,0,0,1-.48,1q-2.61,3-2.61,5.37a2.72,2.72,0,0,0,.41,1.44,1.14,1.14,0,0,1,.19.49A.43.43,0,0,1,112,20a.54.54,0,0,1-.42.19,1.09,1.09,0,0,1-.94-.71,3.26,3.26,0,0,1-.37-1.62,7.89,7.89,0,0,1,1.39-4.09,10.88,10.88,0,0,0-3.46,4.21q-.41.72-.87.72a.48.48,0,0,1-.38-.16.66.66,0,0,1-.2-.49,13.39,13.39,0,0,1,1.69-3.87,27.92,27.92,0,0,1,1.42-2.46c.34-.5.64-.75.89-.75a.49.49,0,0,1,.34.16.59.59,0,0,1,.19.44,1.72,1.72,0,0,1-.4.86A14.56,14.56,0,0,0,109.93,13.91Z"/><path class="cls-2" d="M115.68,16v.25a.91.91,0,0,0,.15.52,1.26,1.26,0,0,0,1.12.5c1.14,0,2.45-.87,4-2.62.26-.3.49-.45.67-.45a.34.34,0,0,1,.27.15.3.3,0,0,1,.08.2c0,.36-.43,1-1.31,1.81A9.84,9.84,0,0,1,118.42,18a4.55,4.55,0,0,1-2.16.63,2,2,0,0,1-1.61-.71,2.1,2.1,0,0,1-.4-1.34A6.49,6.49,0,0,1,116.43,12c1.17-1.21,2.2-1.81,3.07-1.81a1,1,0,0,1,.65.22.93.93,0,0,1,.35.75,3.47,3.47,0,0,1-.67,1.78A7.08,7.08,0,0,1,115.68,16Zm.3-1.07a5.37,5.37,0,0,0,1.5-.73A6.27,6.27,0,0,0,119,12.5a1.21,1.21,0,0,0,.2-.59c0-.18-.08-.27-.26-.27a1.9,1.9,0,0,0-1,.53A7.05,7.05,0,0,0,116,14.9Z"/><path class="cls-2" d="M124.78,14.1a26.69,26.69,0,0,1,3.09-2.81,14.31,14.31,0,0,1,1.34-.91,1.45,1.45,0,0,1,.45-.21c.14,0,.28.1.41.3a.55.55,0,0,1,.13.31c0,.16-.18.38-.52.67-.93.73-1.4,1.29-1.4,1.66,0,.21.12.32.36.32a4.79,4.79,0,0,0,2-1,.79.79,0,0,1,.41-.17.33.33,0,0,1,.22.11.37.37,0,0,1,.12.26c0,.28-.38.69-1.15,1.26a3.86,3.86,0,0,1-2.28.9,1.46,1.46,0,0,1-.81-.23.74.74,0,0,1-.31-.68,1.48,1.48,0,0,1,.29-.78,13.58,13.58,0,0,0-2.55,2.62,20.15,20.15,0,0,0-1.68,2.83q-.32.63-.78.63c-.33,0-.5-.16-.5-.48a10.67,10.67,0,0,1,.79-2.49,18.73,18.73,0,0,1,2.46-4.66c.53-.68,1-1,1.33-1a.5.5,0,0,1,.32.11.41.41,0,0,1,.18.34,1.12,1.12,0,0,1-.27.57l-.73.92A7.25,7.25,0,0,0,124.78,14.1Z"/></svg>