<svg id="Layer_1" data-name="Layer 1" xmlns="http://www.w3.org/2000/svg" viewBox="0 0 156 55"><defs><style>.cls-1{fill:#333;}.cls-2{fill:none;stroke:#333;stroke-miterlimit:10;stroke-width:1.2px;}</style></defs><path class="cls-1" d="M3.68,13.32c.49,0,.74.2.74.6s-.23.53-.69.68a1.55,1.55,0,0,0-1.17,1.52,1.61,1.61,0,0,0,.68,1.37,2.57,2.57,0,0,0,1.49.41,5,5,0,0,0,3.16-1,2.08,2.08,0,0,0,.85-1.7A2.44,2.44,0,0,0,8.49,14,12.55,12.55,0,0,0,7.7,12.7c-.55-.82-1-1.56-1.38-2.24a4.48,4.48,0,0,1-.63-2.2A6.4,6.4,0,0,1,8.22,3.47a12,12,0,0,1,2.95-1.88A6.51,6.51,0,0,1,13.76,1a2.2,2.2,0,0,1,1.36.42,1.63,1.63,0,0,1,.69,1.38,4.57,4.57,0,0,1-1.48,3,11.67,11.67,0,0,1-3.25,2.43,3.6,3.6,0,0,1-1.41.47.76.76,0,0,1-.56-.26A.58.58,0,0,1,8.94,8c0-.34.3-.61.91-.82a9.41,9.41,0,0,0,2.92-1.65c1.1-.92,1.64-1.71,1.64-2.4a.76.76,0,0,0-.33-.64,1,1,0,0,0-.61-.19A5.55,5.55,0,0,0,11.1,3a8.11,8.11,0,0,0-3,2.51,4.4,4.4,0,0,0-1,2.58A4.17,4.17,0,0,0,7.64,10c.29.52.65,1.1,1.08,1.76S9.5,13,9.79,13.51a3.86,3.86,0,0,1,.51,1.79,3.5,3.5,0,0,1-1.85,2.86,6.32,6.32,0,0,1-3.55,1,4.21,4.21,0,0,1-3.07-1.08A2.61,2.61,0,0,1,1,16.23a2.75,2.75,0,0,1,.79-2,3.1,3.1,0,0,1,1.14-.73A2.11,2.11,0,0,1,3.68,13.32Z"/><path class="cls-1" d="M12.89,16v.25a.91.91,0,0,0,.15.52,1.29,1.29,0,0,0,1.13.5c1.14,0,2.45-.87,4-2.62.26-.3.48-.45.67-.45a.34.34,0,0,1,.27.15.3.3,0,0,1,.08.2c0,.36-.43,1-1.31,1.81A9.84,9.84,0,0,1,15.64,18a4.55,4.55,0,0,1-2.16.63,2,2,0,0,1-1.61-.71,2.1,2.1,0,0,1-.4-1.34A6.49,6.49,0,0,1,13.65,12c1.17-1.21,2.2-1.81,3.07-1.81a1,1,0,0,1,.65.22.93.93,0,0,1,.35.75A3.47,3.47,0,0,1,17.05,13,7.07,7.07,0,0,1,12.89,16Zm.31-1.07a5.51,5.51,0,0,0,1.5-.73,6.27,6.27,0,0,0,1.52-1.67,1.21,1.21,0,0,0,.2-.59.24.24,0,0,0-.26-.27,1.87,1.87,0,0,0-1,.53A7,7,0,0,0,13.2,14.9Z"/><path class="cls-1" d="M22,13.91l.34-.33c1.91-1.86,3.18-2.79,3.83-2.79.36,0,.53.2.53.59a1.68,1.68,0,0,1-.47,1q-2.62,3-2.62,5.37a2.81,2.81,0,0,0,.41,1.44,1.06,1.06,0,0,1,.2.49.43.43,0,0,1-.17.31.55.55,0,0,1-.42.19,1.1,1.1,0,0,1-1-.71,3.37,3.37,0,0,1-.36-1.62,7.89,7.89,0,0,1,1.39-4.09,10.88,10.88,0,0,0-3.46,4.21q-.41.72-.87.72A.5.5,0,0,1,19,18.5a.7.7,0,0,1-.19-.49,13.54,13.54,0,0,1,1.68-3.87A27.43,27.43,0,0,1,22,11.68c.34-.5.64-.75.88-.75a.49.49,0,0,1,.35.16.63.63,0,0,1,.19.44,1.72,1.72,0,0,1-.4.86A14.56,14.56,0,0,0,22,13.91Z"/><path class="cls-1" d="M31.72,9.79a22.35,22.35,0,0,0-1.64,3.09A10.2,10.2,0,0,0,29,16.52a.85.85,0,0,0,.14.52.52.52,0,0,0,.43.17c.46,0,1-.42,1.66-1.28a16.69,16.69,0,0,0,1.09-1.59c.18-.3.36-.45.56-.45a.38.38,0,0,1,.3.13.33.33,0,0,1,.11.24A6,6,0,0,1,32,16.52c-1.06,1.4-2,2.1-2.9,2.1A1.37,1.37,0,0,1,27.91,18a1.93,1.93,0,0,1-.29-1.16,9.93,9.93,0,0,1,1-3.86c.15-.36.58-1.24,1.28-2.64a2.13,2.13,0,0,1-.56.1,1,1,0,0,1-.51-.14.54.54,0,0,1-.3-.48.62.62,0,0,1,.4-.54,5.58,5.58,0,0,1,1-.18,7.26,7.26,0,0,0,1-.26,25.81,25.81,0,0,1,1.56-2.34c.4-.54.68-.9.83-1.06a.9.9,0,0,1,.58-.35.51.51,0,0,1,.35.2.51.51,0,0,1,.17.35A3.49,3.49,0,0,1,33.58,7a10.89,10.89,0,0,0-.75,1.11A9.22,9.22,0,0,1,35,7.73q.75,0,.75.63a.48.48,0,0,1-.26.46,2.06,2.06,0,0,1-.71.14,13.1,13.1,0,0,0-2.06.52Z"/><path class="cls-1" d="M36,14.1a26.69,26.69,0,0,1,3.09-2.81,14.31,14.31,0,0,1,1.34-.91,1.45,1.45,0,0,1,.45-.21c.14,0,.28.1.41.3a.55.55,0,0,1,.13.31c0,.16-.18.38-.52.67-.93.73-1.4,1.29-1.4,1.66,0,.21.12.32.36.32a4.79,4.79,0,0,0,2-1,.79.79,0,0,1,.41-.17.33.33,0,0,1,.22.11.37.37,0,0,1,.12.26c0,.28-.38.69-1.15,1.26a3.86,3.86,0,0,1-2.28.9,1.46,1.46,0,0,1-.81-.23.74.74,0,0,1-.31-.68,1.4,1.4,0,0,1,.29-.78,13.58,13.58,0,0,0-2.55,2.62,20.15,20.15,0,0,0-1.68,2.83q-.32.63-.78.63c-.33,0-.5-.16-.5-.48a10.67,10.67,0,0,1,.79-2.49,18.73,18.73,0,0,1,2.46-4.66c.53-.68,1-1,1.33-1a.5.5,0,0,1,.32.11A.41.41,0,0,1,38,11a1.12,1.12,0,0,1-.27.57L37,12.5A7.25,7.25,0,0,0,36,14.1Z"/><path class="cls-1" d="M46.13,16.34a10,10,0,0,1-.89,1.34,2.33,2.33,0,0,1-1.71,1.07,1.3,1.3,0,0,1-1.15-.7A2.15,2.15,0,0,1,42.12,17a7.32,7.32,0,0,1,1-3.35,8.85,8.85,0,0,1,2.57-3.13,3.3,3.3,0,0,1,1.9-.71,1.35,1.35,0,0,1,1,.36,1,1,0,0,1,.33.71,2.33,2.33,0,0,1-.23.83,1,1,0,0,1,.2.51,2.37,2.37,0,0,1-.38.94,10.59,10.59,0,0,0-.8,1.78,5.93,5.93,0,0,0-.42,1.88,1.38,1.38,0,0,0,.34.95,2.71,2.71,0,0,0,.56.31.59.59,0,0,1,.35.58.53.53,0,0,1-.2.42.67.67,0,0,1-.47.18,1.6,1.6,0,0,1-1.28-.66,2,2,0,0,1-.43-1.34C46.08,17.06,46.09,16.76,46.13,16.34Zm1.71-4.5a1.27,1.27,0,0,0-.36-.44.63.63,0,0,0-.41-.15c-.69,0-1.44.61-2.25,1.82a6.5,6.5,0,0,0-1.34,3.41.87.87,0,0,0,.13.52.48.48,0,0,0,.39.17c.44,0,1-.46,1.53-1.39a23.4,23.4,0,0,0,1.22-2.26c.32-.64.55-1.07.69-1.28A2.47,2.47,0,0,1,47.84,11.84Z"/><path class="cls-1" d="M51.6,14.06c-.27.71-.48,1.28-.62,1.72a3.92,3.92,0,0,0-.2.92.3.3,0,0,0,.33.34c.33,0,.75-.31,1.27-.93a18.26,18.26,0,0,0,1.09-1.63c.19-.31.39-.46.6-.46s.36.11.36.34a6,6,0,0,1-1.35,2.38c-.94,1.25-1.81,1.87-2.62,1.87a1,1,0,0,1-.84-.44,1.21,1.21,0,0,1-.24-.76,7.07,7.07,0,0,1,.47-2.12A33.45,33.45,0,0,1,51.23,12,46.17,46.17,0,0,1,56,3.86c1.3-1.72,2.38-2.57,3.24-2.57a.82.82,0,0,1,.67.31,1.08,1.08,0,0,1,.27.73c0,1.27-1.14,3.4-3.42,6.37a33,33,0,0,1-3.66,4C52.76,13,52.25,13.47,51.6,14.06Zm1-2.18a24.93,24.93,0,0,0,5.09-6.15,7,7,0,0,0,1.16-2.56c0-.2-.09-.3-.26-.3-.5,0-1.41,1-2.74,3A43.56,43.56,0,0,0,52.57,11.88Z"/><path class="cls-1" d="M56.44,16v.25a.91.91,0,0,0,.15.52,1.27,1.27,0,0,0,1.12.5q1.71,0,3.95-2.62c.27-.3.49-.45.67-.45a.38.38,0,0,1,.28.15.37.37,0,0,1,.08.2c0,.36-.44,1-1.31,1.81A10.32,10.32,0,0,1,59.19,18a4.61,4.61,0,0,1-2.16.63,2,2,0,0,1-1.62-.71A2.1,2.1,0,0,1,55,16.53,6.48,6.48,0,0,1,57.19,12c1.18-1.21,2.2-1.81,3.08-1.81a1,1,0,0,1,.64.22.91.91,0,0,1,.36.75A3.57,3.57,0,0,1,60.6,13,7.13,7.13,0,0,1,56.44,16Zm.3-1.07a5.24,5.24,0,0,0,1.5-.73,6.11,6.11,0,0,0,1.52-1.67,1.14,1.14,0,0,0,.21-.59.24.24,0,0,0-.26-.27,1.84,1.84,0,0,0-1,.53A7,7,0,0,0,56.74,14.9Z"/><path class="cls-1" d="M74,11.34c.38-.24.66-.41.84-.5a2.5,2.5,0,0,1,1.09-.27,1.13,1.13,0,0,1,.9.35,1.56,1.56,0,0,1,.3,1,5.39,5.39,0,0,1-.66,2.3,10.06,10.06,0,0,1-2.52,3.34,3.79,3.79,0,0,1-2.34,1,1.9,1.9,0,0,1-1.19-.46c-1.25,2.52-2.36,5.1-3.35,7.72-.21.63-.45.95-.74.95a.59.59,0,0,1-.41-.28.68.68,0,0,1-.15-.42,22.47,22.47,0,0,1,1.81-4.8,96,96,0,0,1,5.29-10.4c.35-.59.58-1,.7-1.21.32-.59.63-.89.93-.89S75,9,75,9.39a1.77,1.77,0,0,1-.33.85ZM70.92,17a1,1,0,0,0,.75.31q1.27,0,2.82-2.25a8.84,8.84,0,0,0,.91-1.71,3.41,3.41,0,0,0,.28-1,.5.5,0,0,0-.12-.37.49.49,0,0,0-.36-.13,2.62,2.62,0,0,0-1.58.89,9.53,9.53,0,0,0-1.7,2.42C71.42,16.08,71.08,16.71,70.92,17Z"/><path class="cls-1" d="M78.51,16v.25a.91.91,0,0,0,.15.52,1.26,1.26,0,0,0,1.12.5c1.14,0,2.45-.87,4-2.62.26-.3.49-.45.67-.45a.34.34,0,0,1,.27.15.3.3,0,0,1,.08.2c0,.36-.43,1-1.31,1.81A9.84,9.84,0,0,1,81.25,18a4.55,4.55,0,0,1-2.16.63,2,2,0,0,1-1.61-.71,2.1,2.1,0,0,1-.4-1.34A6.49,6.49,0,0,1,79.26,12c1.17-1.21,2.2-1.81,3.07-1.81a1,1,0,0,1,.65.22.93.93,0,0,1,.35.75A3.47,3.47,0,0,1,82.66,13,7.08,7.08,0,0,1,78.51,16Zm.3-1.07a5.37,5.37,0,0,0,1.5-.73,6.27,6.27,0,0,0,1.52-1.67,1.21,1.21,0,0,0,.2-.59c0-.18-.08-.27-.26-.27a1.9,1.9,0,0,0-1,.53A7.05,7.05,0,0,0,78.81,14.9Z"/><path class="cls-1" d="M87.61,14.1a26.69,26.69,0,0,1,3.09-2.81A14.31,14.31,0,0,1,92,10.38a1.45,1.45,0,0,1,.45-.21c.14,0,.28.1.41.3a.55.55,0,0,1,.13.31c0,.16-.18.38-.52.67-.93.73-1.4,1.29-1.4,1.66,0,.21.12.32.36.32a4.79,4.79,0,0,0,2-1,.79.79,0,0,1,.41-.17.33.33,0,0,1,.22.11.37.37,0,0,1,.12.26c0,.28-.38.69-1.15,1.26a3.86,3.86,0,0,1-2.28.9,1.46,1.46,0,0,1-.81-.23.74.74,0,0,1-.31-.68,1.48,1.48,0,0,1,.29-.78,13.58,13.58,0,0,0-2.55,2.62,20.15,20.15,0,0,0-1.68,2.83q-.31.63-.78.63c-.33,0-.5-.16-.5-.48a10.67,10.67,0,0,1,.79-2.49,18.73,18.73,0,0,1,2.46-4.66c.53-.68,1-1,1.33-1a.52.52,0,0,1,.33.11.42.42,0,0,1,.17.34,1.12,1.12,0,0,1-.27.57l-.73.92A7.25,7.25,0,0,0,87.61,14.1Z"/><path class="cls-1" d="M100,9.52a2.2,2.2,0,0,1,1.27.3,1,1,0,0,1,.42.91,2.47,2.47,0,0,1-.6,1.56,3.91,3.91,0,0,1-1.72,1.15,3,3,0,0,1-1,.23c-.39,0-.58-.17-.58-.5a.56.56,0,0,1,.33-.52,6.79,6.79,0,0,1,.93-.23,2.18,2.18,0,0,0,.93-.48.93.93,0,0,0,.37-.69.51.51,0,0,0-.17-.42.75.75,0,0,0-.49-.14,3.22,3.22,0,0,0-1.75.65,2.05,2.05,0,0,0-1.11,1.72,3.51,3.51,0,0,0,.73,1.78,3.68,3.68,0,0,1,.81,2,2.13,2.13,0,0,1-1.07,1.89,2.73,2.73,0,0,1-1.49.43,2.32,2.32,0,0,1-2-.95,2.62,2.62,0,0,1-.48-1.58,3,3,0,0,1,.55-1.8,1,1,0,0,1,.74-.47c.23,0,.34.09.34.27a.83.83,0,0,1-.12.33,2.87,2.87,0,0,0-.32,1.38,1.5,1.5,0,0,0,.48,1.13,1.33,1.33,0,0,0,1,.41,1,1,0,0,0,.84-.35,1.2,1.2,0,0,0,.24-.77,2.88,2.88,0,0,0-.65-1.49A4.08,4.08,0,0,1,95.4,13a3,3,0,0,1,1.49-2.42A5.24,5.24,0,0,1,100,9.52Z"/><path class="cls-1" d="M106.08,9.78c.75,0,1.12.45,1.12,1.36a9.58,9.58,0,0,1-1.68,4.61c-1.22,2-2.4,3-3.54,3a1.21,1.21,0,0,1-1.16-.73,1.91,1.91,0,0,1-.19-.89,7.59,7.59,0,0,1,1.2-3.8,9.23,9.23,0,0,1,2.64-3A2.9,2.9,0,0,1,106.08,9.78ZM104.66,15c-.23-.19-.34-.33-.34-.43s.14-.27.44-.6A3.88,3.88,0,0,0,106,11.69a.51.51,0,0,0-.07-.22.38.38,0,0,0-.34-.2c-.3,0-.72.28-1.29.85a8.68,8.68,0,0,0-1.67,2.25,5.25,5.25,0,0,0-.67,2.2.65.65,0,0,0,.13.41.51.51,0,0,0,.45.25q.64,0,1.41-1a4.72,4.72,0,0,0,.53-.84A2.73,2.73,0,0,0,104.66,15Z"/><path class="cls-1" d="M109.83,13.91l.34-.33c1.91-1.86,3.18-2.79,3.83-2.79.35,0,.53.2.53.59a1.64,1.64,0,0,1-.48,1q-2.61,3-2.61,5.37a2.81,2.81,0,0,0,.41,1.44,1,1,0,0,1,.19.49.41.41,0,0,1-.16.31.55.55,0,0,1-.42.19,1.1,1.1,0,0,1-.95-.71,3.37,3.37,0,0,1-.37-1.62,7.91,7.91,0,0,1,1.4-4.09,10.79,10.79,0,0,0-3.46,4.21c-.28.48-.57.72-.88.72a.49.49,0,0,1-.38-.16.66.66,0,0,1-.19-.49,13.54,13.54,0,0,1,1.68-3.87c.6-1.13,1.08-2,1.42-2.46s.65-.75.89-.75a.47.47,0,0,1,.34.16.59.59,0,0,1,.19.44,1.78,1.78,0,0,1-.39.86A14.56,14.56,0,0,0,109.83,13.91Z"/><path class="cls-1" d="M118.52,16.34a9.15,9.15,0,0,1-.89,1.34,2.33,2.33,0,0,1-1.7,1.07,1.27,1.27,0,0,1-1.15-.7,2,2,0,0,1-.26-1.07,7.42,7.42,0,0,1,1-3.35A9,9,0,0,1,118,10.5,3.31,3.31,0,0,1,120,9.79a1.32,1.32,0,0,1,1,.36,1,1,0,0,1,.33.71,2.33,2.33,0,0,1-.23.83,1,1,0,0,1,.2.51,2.22,2.22,0,0,1-.38.94,10.66,10.66,0,0,0-.79,1.78,6,6,0,0,0-.43,1.88,1.34,1.34,0,0,0,.35.95,2.44,2.44,0,0,0,.56.31.6.6,0,0,1,.34.58.55.55,0,0,1-.19.42.72.72,0,0,1-.48.18,1.58,1.58,0,0,1-1.27-.66,2,2,0,0,1-.44-1.34C118.47,17.06,118.49,16.76,118.52,16.34Zm1.71-4.5a1.38,1.38,0,0,0-.35-.44.67.67,0,0,0-.41-.15c-.7,0-1.45.61-2.26,1.82a6.59,6.59,0,0,0-1.34,3.41A.87.87,0,0,0,116,17a.48.48,0,0,0,.39.17c.44,0,1-.46,1.53-1.39a21.37,21.37,0,0,0,1.22-2.26,11.73,11.73,0,0,1,.7-1.28A2,2,0,0,1,120.23,11.84Z"/><path class="cls-1" d="M124.24,14.1a26.69,26.69,0,0,1,3.09-2.81,13.1,13.1,0,0,1,1.34-.91,1.45,1.45,0,0,1,.45-.21c.14,0,.27.1.41.3a.53.53,0,0,1,.12.31c0,.16-.17.38-.52.67-.93.73-1.39,1.29-1.39,1.66,0,.21.12.32.35.32a4.75,4.75,0,0,0,2-1,.79.79,0,0,1,.41-.17.35.35,0,0,1,.22.11.37.37,0,0,1,.12.26c0,.28-.38.69-1.15,1.26a3.86,3.86,0,0,1-2.28.9,1.46,1.46,0,0,1-.81-.23.74.74,0,0,1-.31-.68,1.46,1.46,0,0,1,.28-.78,13.58,13.58,0,0,0-2.54,2.62,19.23,19.23,0,0,0-1.68,2.83q-.31.63-.78.63t-.51-.48a10.94,10.94,0,0,1,.8-2.49,18.73,18.73,0,0,1,2.46-4.66q.8-1,1.32-1a.51.51,0,0,1,.33.11.41.41,0,0,1,.18.34,1.12,1.12,0,0,1-.27.57l-.73.92A7.25,7.25,0,0,0,124.24,14.1Z"/><path class="cls-2" d="M150.89,54s-1-12-7-22-12.82-12.46-12.82-12.46"/><polyline class="cls-2" points="146.4 50.5 150.9 53.86 154.4 49.5"/></svg>